<svg version="1.0" xmlns="http://www.w3.org/2000/svg" width="33.333" height="28" viewBox="0 0 25 21"><path d="M1.7 1.8C.7 2.9 0 5.3 0 7.8c0 3.6.5 4.5 5.2 8.6 2.9 2.5 6.2 4.6 7.3 4.6 1.1 0 4.4-2.1 7.3-4.6 4.7-4.2 5.2-4.9 5.2-8.8 0-2.9-.6-4.8-1.8-5.9-2.1-1.9-8.2-2.3-9.9-.6-.8.8-1.3.8-1.7 0-1.2-1.8-8.1-1.3-9.9.7zm7.7 2.8c.9.8 1.6 2.2 1.6 3 0 2.3 2.7 1.6 3.4-1 .3-1.3 1.3-2.7 2.2-3 2.3-.9 5.4 1.2 5.4 3.6 0 2.3-7.2 9.8-9.4 9.8C10.7 17 3 9.6 3 7.7 3 6 5.6 3 7 3c.5 0 1.6.7 2.4 1.6z" fill="#de5d5d"/></svg>