<svg version="1.0" xmlns="http://www.w3.org/2000/svg" width="308" height="306.667" viewBox="0 0 231 230"><g fill="#de5d5d"><path d="M104 .7C53.7 5.9 13.3 42.4 2.4 92.5c-2.3 10.8-2.4 35.1-.1 45.3 6.1 26.6 19.4 49 38.8 65.3l4.8 4 12.8-6.5c15.3-7.9 44.8-25.6 57.6-34.6 13.4-9.5 28.6-24.8 32.6-33.1 5.4-11.1 5.4-19.2-.1-25.5-1.7-1.9-4.7-4.1-6.6-4.9-9.2-3.9-17.1-.1-34.2 16.6-14.4 14-24 21.9-36.1 29.9-8.9 5.9-26.5 14.1-34.4 16.1-4 1-4.8.9-6.5-.6-2.1-1.9-2.5-4.1-1.2-6.3.5-.7 4.6-2.6 9.1-4.2 11.8-4.2 26.3-12 36.3-19.5 4.7-3.6 15.7-13.2 24.3-21.5 19.1-18.3 24.6-21.5 36.5-21.5 6.5 0 8.2.4 13 3.1 6.4 3.6 11.5 9.7 13.1 15.7 1.7 6.4.7 17.4-2.3 23.9-6.2 13.4-22.2 29.7-42.8 43.5-12.4 8.3-33.4 21-47.7 28.8l-13.5 7.4 6.8 3.4c11.2 5.6 9.3 6 28-6.1 21-13.6 28.3-17.4 34-17.5 5.5 0 13.8 4 26.3 12.8 5.2 3.7 11.1 7.7 13.1 9l3.7 2.3 7.3-4.5c31.5-19 51.8-51.5 54.9-88.3 4.2-47.8-21.6-92.6-65.1-113.5C146 2.5 124.1-1.4 104 .7zm24.7 47.9c28.1 5.8 47.1 27.2 58.1 65.5 2.1 7.4 4.6 14.8 5.5 16.6 3.1 5.9 1.4 9.7-4 9.1-3.8-.4-6.3-5.3-10.8-21.3-2.2-8.3-5.6-17.2-9.2-24.5-4.9-9.8-6.9-12.7-13.8-19.6-9.3-9.4-16.8-13.6-29-16.1-24.2-4.9-49.3 8.5-72.4 38.7-5.1 6.7-11.2 12.9-14.9 15.2-3.9 2.4-7.5 1.4-8.7-2.3-.6-1.9.2-3.1 4.8-7.3 3.1-2.8 8.4-8.7 11.8-13.1 13.7-17.4 25.4-27.7 40.2-35 14.3-7.1 27.7-9 42.4-5.9zm-.2 22.8c2.1 3.1.6 6.3-3.3 7.2-8.3 1.9-11.4 2.9-17.7 6.2-5.8 3-9.9 6.5-24.5 21.2-9.6 9.8-19.6 19.1-22.1 20.8-7.1 4.7-22 12.2-24.5 12.2-2.7 0-5.4-2.5-5.4-4.9 0-2.5 2-3.9 13.1-9.4 11.8-5.9 20.3-12.8 30.7-24.9 13.8-16.2 26.6-25.2 41.2-29.4 7.3-2 10.7-1.8 12.5 1zm8.9 45.2c3 2.9 1.8 5.8-6.3 15.5-15.3 18.3-36.2 34-63.8 47.9-17.6 8.9-29.7 13.4-32.3 12-2.4-1.3-3.4-4.4-2.1-6.8.5-1 4.8-3.2 9.8-5.1 11-4.1 32.6-15.2 43.5-22.3 15.3-10 27.7-21.2 42.4-38.1 4.3-5 6.3-5.7 8.8-3.1zm33.8 29.6c.9.7 2.2 3.2 2.8 5.5 1.5 6 5.2 9.9 13.1 13.9 6.1 3 6.9 3.8 6.9 6.2 0 6.2-4.9 6.8-13.6 1.6-7.6-4.5-11.8-8.7-14.2-13.8-3.3-7-3.6-10.2-1.3-12.5 2.4-2.4 4-2.6 6.3-.9zm-19.2 22c.5.7 2.8 4 4.9 7.3 4.5 6.9 11 12.2 20.9 17.1 7.8 3.8 9 5.5 6.6 9.2-2 3-5.2 2.7-13.5-1.3-11.1-5.2-24.5-18.9-26.5-27.1-1.1-4.5 4.8-8.5 7.6-5.2z"/><path d="M113.5 208.8c-12.2 7.3-26.5 16.6-26.5 17.3 0 .4 2.8 1.2 6.3 1.7 13.5 2.3 14.5 2.3 19 0 5.1-2.6 12-2.8 16.6-.4 3.2 1.7 3.7 1.7 12.5-.4 5-1.1 10.4-2.7 12-3.3l2.8-1.2-10.3-7.1c-12.5-8.5-17.9-11.4-21.6-11.4-1.6 0-6.4 2.1-10.8 4.8z"/></g></svg>